<svg width="445" height="116" viewBox="0 0 445 116" fill="none" xmlns="http://www.w3.org/2000/svg">
<g filter="url(#filter0_i_1_40)">
<path d="M14.25 78.625C11.9375 78.625 9.85417 78.0521 8 76.9062C6.125 75.7604 4.61458 74.2188 3.46875 72.2812C2.34375 70.3438 1.78125 68.1771 1.78125 65.7812V45.5C1.78125 43.1667 2.35417 41.0417 3.5 39.125C4.625 37.1875 6.13542 35.6458 8.03125 34.5C9.92708 33.3333 12 32.75 14.25 32.75C16.6042 32.75 18.7292 33.3125 20.625 34.4375C22.5208 35.5833 24.0208 37.1146 25.125 39.0312C26.25 40.9479 26.8125 43.1042 26.8125 45.5V48.4375C26.8125 48.6042 26.7083 48.6875 26.5 48.6875H19.3125C19.1458 48.6875 19.0625 48.6042 19.0625 48.4375V46C19.0625 44.375 18.6042 43.0312 17.6875 41.9688C16.7708 40.9062 15.625 40.375 14.25 40.375C13.0208 40.375 11.9271 40.8854 10.9688 41.9062C10.0104 42.9271 9.53125 44.125 9.53125 45.5V65.7812C9.53125 67.1771 10 68.3854 10.9375 69.4062C11.875 70.4062 12.9792 70.9062 14.25 70.9062C15.625 70.9062 16.7708 70.4167 17.6875 69.4375C18.6042 68.4375 19.0625 67.2188 19.0625 65.7812V62.625H14.5938C14.3646 62.625 14.25 62.5208 14.25 62.3125V55.1562C14.25 54.9479 14.3646 54.8438 14.5938 54.8438H26.5625C26.7292 54.8438 26.8125 54.9479 26.8125 55.1562V65.7812C26.8125 68.1771 26.25 70.3438 25.125 72.2812C23.9792 74.2188 22.4688 75.7604 20.5938 76.9062C18.7188 78.0521 16.6042 78.625 14.25 78.625ZM29.1875 77.6875L37.125 33.7188C37.1667 33.5521 37.2708 33.4688 37.4375 33.4688H46.7188C46.8854 33.4688 46.9896 33.5521 47.0312 33.7188L54.6562 77.6875C54.6771 77.8958 54.5938 78 54.4062 78H47.3125C47.1042 78 46.9896 77.8958 46.9688 77.6875L46.2812 73H37.5625L36.875 77.6875C36.8542 77.8958 36.75 78 36.5625 78H29.4375C29.2708 78 29.1875 77.8958 29.1875 77.6875ZM41.7188 48.1875L38.8438 66.1562H45L42.375 48.1875L42 45.8125L41.7188 48.1875ZM72.3125 78H65.0938C64.9062 78 64.8125 77.8958 64.8125 77.6875V41.1875H56.5C56.2917 41.1875 56.1875 41.0833 56.1875 40.875L56.25 33.7188C56.25 33.5521 56.3333 33.4688 56.5 33.4688H80.8125C81.0417 33.4688 81.1562 33.5521 81.1562 33.7188V40.875C81.1562 41.0833 81.0729 41.1875 80.9062 41.1875H72.5L72.5625 77.6875C72.5625 77.8958 72.4792 78 72.3125 78ZM91.8438 78H84.5938C84.3854 78 84.2812 77.8958 84.2812 77.6875L84.3438 33.7188C84.3438 33.5521 84.4271 33.4688 84.5938 33.4688H91.7812C91.9479 33.4688 92.0312 33.5521 92.0312 33.7188L92.0938 77.6875C92.0938 77.8958 92.0104 78 91.8438 78ZM104.688 78H98.2812C97.9479 78 97.7812 77.8542 97.7812 77.5625L97.7188 33.9688C97.7188 33.6354 97.8854 33.4688 98.2188 33.4688H104L114.812 58.6875L114.5 33.9688C114.5 33.6354 114.688 33.4688 115.062 33.4688H121.406C121.656 33.4688 121.781 33.6354 121.781 33.9688L121.844 77.625C121.844 77.875 121.74 78 121.531 78H115.906L104.812 54.4375L105.281 77.5C105.281 77.8333 105.083 78 104.688 78ZM134.906 78H127.656C127.49 78 127.406 77.8958 127.406 77.6875L127.469 33.7188C127.469 33.5521 127.573 33.4688 127.781 33.4688H134.906C135.115 33.4688 135.219 33.5521 135.219 33.7188L135.156 51.125H144.75V33.7188C144.75 33.5521 144.833 33.4688 145 33.4688H152.125C152.333 33.4688 152.438 33.5521 152.438 33.7188L152.562 77.6875C152.562 77.8958 152.458 78 152.25 78H145.062C144.854 78 144.75 77.8958 144.75 77.6875V58.875H135.156V77.6875C135.156 77.8958 135.073 78 134.906 78ZM169.625 78.625C167.354 78.625 165.26 78.0417 163.344 76.875C161.448 75.7083 159.917 74.1562 158.75 72.2188C157.604 70.2604 157.031 68.1146 157.031 65.7812L157.094 45.5C157.094 43.125 157.667 40.9896 158.812 39.0938C159.938 37.1771 161.458 35.6458 163.375 34.5C165.292 33.3333 167.375 32.75 169.625 32.75C171.958 32.75 174.052 33.3229 175.906 34.4688C177.781 35.6146 179.281 37.1562 180.406 39.0938C181.552 41.0104 182.125 43.1458 182.125 45.5L182.188 65.7812C182.188 68.1146 181.625 70.25 180.5 72.1875C179.354 74.1458 177.833 75.7083 175.938 76.875C174.042 78.0417 171.938 78.625 169.625 78.625ZM169.625 70.9062C170.917 70.9062 172.042 70.3854 173 69.3438C173.958 68.2812 174.438 67.0938 174.438 65.7812L174.375 45.5C174.375 44.0833 173.927 42.8854 173.031 41.9062C172.135 40.9271 171 40.4375 169.625 40.4375C168.312 40.4375 167.188 40.9167 166.25 41.875C165.312 42.8333 164.844 44.0417 164.844 45.5V65.7812C164.844 67.1771 165.312 68.3854 166.25 69.4062C167.188 70.4062 168.312 70.9062 169.625 70.9062ZM197.906 78.625C195.635 78.625 193.542 78.0417 191.625 76.875C189.729 75.7083 188.208 74.1562 187.062 72.2188C185.938 70.2604 185.375 68.1146 185.375 65.7812V62.8438C185.375 62.6146 185.479 62.5 185.688 62.5H192.875C193.042 62.5 193.125 62.6146 193.125 62.8438V65.7812C193.125 67.1771 193.594 68.3854 194.531 69.4062C195.469 70.4062 196.594 70.9062 197.906 70.9062C199.24 70.9062 200.375 70.3958 201.312 69.375C202.25 68.3333 202.719 67.1354 202.719 65.7812C202.719 64.2188 201.698 62.8542 199.656 61.6875C199.323 61.4792 198.885 61.2292 198.344 60.9375C197.823 60.625 197.198 60.2708 196.469 59.875C195.74 59.4792 195.031 59.0938 194.344 58.7188C193.656 58.3229 192.99 57.9479 192.344 57.5938C190.01 56.2188 188.271 54.5 187.125 52.4375C186 50.3542 185.438 48.0208 185.438 45.4375C185.438 43.0625 186.021 40.9167 187.188 39C188.354 37.1042 189.875 35.6042 191.75 34.5C193.646 33.375 195.698 32.8125 197.906 32.8125C200.177 32.8125 202.26 33.375 204.156 34.5C206.052 35.6458 207.562 37.1667 208.688 39.0625C209.833 40.9583 210.406 43.0833 210.406 45.4375V50.6875C210.406 50.8542 210.323 50.9375 210.156 50.9375H202.969C202.802 50.9375 202.719 50.8542 202.719 50.6875L202.656 45.4375C202.656 43.9375 202.188 42.7188 201.25 41.7812C200.312 40.8438 199.198 40.375 197.906 40.375C196.594 40.375 195.469 40.875 194.531 41.875C193.594 42.875 193.125 44.0625 193.125 45.4375C193.125 46.8333 193.417 48 194 48.9375C194.604 49.875 195.698 50.7708 197.281 51.625C197.448 51.7083 197.833 51.9167 198.438 52.25C199.042 52.5833 199.708 52.9583 200.438 53.375C201.188 53.7708 201.865 54.1354 202.469 54.4688C203.073 54.7812 203.438 54.9688 203.562 55.0312C205.688 56.2188 207.365 57.6771 208.594 59.4062C209.844 61.1354 210.469 63.2604 210.469 65.7812C210.469 68.2188 209.906 70.4062 208.781 72.3438C207.635 74.2812 206.115 75.8125 204.219 76.9375C202.323 78.0625 200.219 78.625 197.906 78.625ZM239.031 78H231.844C231.635 78 231.531 77.8958 231.531 77.6875L231.656 33.7188C231.656 33.5521 231.74 33.4688 231.906 33.4688H252.406C252.615 33.4688 252.719 33.5521 252.719 33.7188V40.9375C252.719 41.1042 252.635 41.1875 252.469 41.1875H239.344V51.125H252.469C252.635 51.125 252.719 51.2292 252.719 51.4375L252.781 58.6875C252.781 58.8542 252.677 58.9375 252.469 58.9375H239.344V77.6875C239.344 77.8958 239.24 78 239.031 78ZM267.75 78.625C265.479 78.625 263.385 78.0417 261.469 76.875C259.573 75.7083 258.042 74.1562 256.875 72.2188C255.729 70.2604 255.156 68.1146 255.156 65.7812L255.219 45.5C255.219 43.125 255.792 40.9896 256.938 39.0938C258.062 37.1771 259.583 35.6458 261.5 34.5C263.417 33.3333 265.5 32.75 267.75 32.75C270.083 32.75 272.177 33.3229 274.031 34.4688C275.906 35.6146 277.406 37.1562 278.531 39.0938C279.677 41.0104 280.25 43.1458 280.25 45.5L280.312 65.7812C280.312 68.1146 279.75 70.25 278.625 72.1875C277.479 74.1458 275.958 75.7083 274.062 76.875C272.167 78.0417 270.062 78.625 267.75 78.625ZM267.75 70.9062C269.042 70.9062 270.167 70.3854 271.125 69.3438C272.083 68.2812 272.562 67.0938 272.562 65.7812L272.5 45.5C272.5 44.0833 272.052 42.8854 271.156 41.9062C270.26 40.9271 269.125 40.4375 267.75 40.4375C266.438 40.4375 265.312 40.9167 264.375 41.875C263.438 42.8333 262.969 44.0417 262.969 45.5V65.7812C262.969 67.1771 263.438 68.3854 264.375 69.4062C265.312 70.4062 266.438 70.9062 267.75 70.9062ZM292.656 78H285.469C285.26 78 285.156 77.8958 285.156 77.6875L285.281 33.7188C285.281 33.5521 285.365 33.4688 285.531 33.4688H306.031C306.24 33.4688 306.344 33.5521 306.344 33.7188V40.9375C306.344 41.1042 306.26 41.1875 306.094 41.1875H292.969V51.125H306.094C306.26 51.125 306.344 51.2292 306.344 51.4375L306.406 58.6875C306.406 58.8542 306.302 58.9375 306.094 58.9375H292.969V77.6875C292.969 77.8958 292.865 78 292.656 78ZM319.656 78H312.406C312.198 78 312.094 77.8958 312.094 77.6875L312.156 33.7188C312.156 33.5521 312.24 33.4688 312.406 33.4688H319.594C319.76 33.4688 319.844 33.5521 319.844 33.7188L319.906 77.6875C319.906 77.8958 319.823 78 319.656 78ZM332.5 78H326.094C325.76 78 325.594 77.8542 325.594 77.5625L325.531 33.9688C325.531 33.6354 325.698 33.4688 326.031 33.4688H331.812L342.625 58.6875L342.312 33.9688C342.312 33.6354 342.5 33.4688 342.875 33.4688H349.219C349.469 33.4688 349.594 33.6354 349.594 33.9688L349.656 77.625C349.656 77.875 349.552 78 349.344 78H343.719L332.625 54.4375L333.094 77.5C333.094 77.8333 332.896 78 332.5 78ZM362.719 78H355.469C355.302 78 355.219 77.8958 355.219 77.6875L355.281 33.7188C355.281 33.5521 355.385 33.4688 355.594 33.4688H362.719C362.927 33.4688 363.031 33.5521 363.031 33.7188L362.969 51.125H372.562V33.7188C372.562 33.5521 372.646 33.4688 372.812 33.4688H379.938C380.146 33.4688 380.25 33.5521 380.25 33.7188L380.375 77.6875C380.375 77.8958 380.271 78 380.062 78H372.875C372.667 78 372.562 77.8958 372.562 77.6875V58.875H362.969V77.6875C362.969 77.8958 362.885 78 362.719 78ZM429.719 78.625C427.448 78.625 425.354 78.0417 423.438 76.875C421.542 75.7083 420.021 74.1562 418.875 72.2188C417.75 70.2604 417.188 68.1146 417.188 65.7812V62.8438C417.188 62.6146 417.292 62.5 417.5 62.5H424.688C424.854 62.5 424.938 62.6146 424.938 62.8438V65.7812C424.938 67.1771 425.406 68.3854 426.344 69.4062C427.281 70.4062 428.406 70.9062 429.719 70.9062C431.052 70.9062 432.188 70.3958 433.125 69.375C434.062 68.3333 434.531 67.1354 434.531 65.7812C434.531 64.2188 433.51 62.8542 431.469 61.6875C431.135 61.4792 430.698 61.2292 430.156 60.9375C429.635 60.625 429.01 60.2708 428.281 59.875C427.552 59.4792 426.844 59.0938 426.156 58.7188C425.469 58.3229 424.802 57.9479 424.156 57.5938C421.823 56.2188 420.083 54.5 418.938 52.4375C417.812 50.3542 417.25 48.0208 417.25 45.4375C417.25 43.0625 417.833 40.9167 419 39C420.167 37.1042 421.688 35.6042 423.562 34.5C425.458 33.375 427.51 32.8125 429.719 32.8125C431.99 32.8125 434.073 33.375 435.969 34.5C437.865 35.6458 439.375 37.1667 440.5 39.0625C441.646 40.9583 442.219 43.0833 442.219 45.4375V50.6875C442.219 50.8542 442.135 50.9375 441.969 50.9375H434.781C434.615 50.9375 434.531 50.8542 434.531 50.6875L434.469 45.4375C434.469 43.9375 434 42.7188 433.062 41.7812C432.125 40.8438 431.01 40.375 429.719 40.375C428.406 40.375 427.281 40.875 426.344 41.875C425.406 42.875 424.938 44.0625 424.938 45.4375C424.938 46.8333 425.229 48 425.812 48.9375C426.417 49.875 427.51 50.7708 429.094 51.625C429.26 51.7083 429.646 51.9167 430.25 52.25C430.854 52.5833 431.521 52.9583 432.25 53.375C433 53.7708 433.677 54.1354 434.281 54.4688C434.885 54.7812 435.25 54.9688 435.375 55.0312C437.5 56.2188 439.177 57.6771 440.406 59.4062C441.656 61.1354 442.281 63.2604 442.281 65.7812C442.281 68.2188 441.719 70.4062 440.594 72.3438C439.448 74.2812 437.927 75.8125 436.031 76.9375C434.135 78.0625 432.031 78.625 429.719 78.625Z" fill="#282828"/>
<path d="M384.703 80.9439C384.294 80.9439 383.883 80.9118 383.483 80.8483C380.919 80.442 378.542 78.7014 377.279 76.3059C376.229 74.3075 375.977 72.0636 375.869 70.1321C375.832 69.4932 375.81 68.84 375.789 68.2082C375.739 66.7412 375.687 65.2244 375.455 63.7939C374.903 60.4003 373.278 57.2518 370.878 54.9284C370.713 54.768 370.544 54.6115 370.375 54.4549C369.802 53.9243 369.21 53.3754 368.76 52.681C368.201 51.8242 367.796 50.4969 368.337 49.3451C368.779 48.408 369.809 47.8028 370.961 47.8028C371.026 47.8028 371.09 47.8049 371.154 47.8087C371.285 47.8152 371.408 47.829 371.526 47.8505C372.744 48.0672 373.765 48.8779 374.519 49.5601C378.488 53.1656 380.932 58.6189 381.058 64.1481C381.079 65.0716 381.039 66.0038 380.999 66.9054C380.967 67.6408 380.934 68.4015 380.936 69.1428C380.938 69.725 380.959 70.2327 381.002 70.6953C381.059 71.3383 381.167 71.9553 381.323 72.5305L381.328 72.5481C381.627 73.6498 382.254 75.1471 383.549 76.0583C383.944 76.3357 384.419 76.531 384.922 76.6227C385.149 76.6651 385.381 76.6866 385.612 76.6866C386.86 76.6866 387.911 76.0791 388.357 75.1011C388.419 74.9641 388.547 74.8734 388.69 74.8641L388.715 74.8633C388.849 74.8633 388.975 74.9355 389.049 75.0563C389.62 75.9964 390.125 76.8403 390.736 77.9041C390.832 78.072 390.805 78.2883 390.672 78.4246C389.473 79.6467 387.884 80.4914 386.197 80.8033C385.704 80.8964 385.201 80.9439 384.703 80.9439Z" fill="#2B2B2B"/>
<path d="M370.961 48.2231C371.018 48.2231 371.075 48.2248 371.132 48.2283C371.242 48.2339 371.35 48.2451 371.459 48.2647C372.522 48.4538 373.442 49.1385 374.261 49.8794C378.152 53.4141 380.538 58.7372 380.661 64.1583C380.699 65.8206 380.535 67.4857 380.539 69.1439C380.54 69.6747 380.557 70.2054 380.606 70.7362C380.663 71.3748 380.772 72.0218 380.941 72.6464V72.6478C381.349 74.1602 382.109 75.5495 383.329 76.408C383.784 76.7273 384.31 76.9373 384.854 77.0368C385.104 77.0834 385.358 77.1068 385.611 77.1068C386.901 77.1068 388.16 76.501 388.715 75.2834C389.24 76.1489 389.762 77.0172 390.396 78.1221C389.232 79.3084 387.719 80.0954 386.129 80.3894C385.658 80.4783 385.181 80.5237 384.703 80.5237C384.315 80.5237 383.926 80.4937 383.542 80.4328C381.086 80.0435 378.835 78.3952 377.626 76.1013C376.662 74.2681 376.383 72.2165 376.265 70.1074C376.144 67.9843 376.184 65.8025 375.847 63.7228C375.282 60.2539 373.602 56.9965 371.146 54.6185C370.429 53.9225 369.637 53.2923 369.087 52.4436C368.534 51.595 368.26 50.4536 368.693 49.5321C369.099 48.6696 370.038 48.2231 370.961 48.2231ZM370.961 47.3829C369.659 47.3829 368.49 48.0794 367.982 49.1572C367.464 50.2586 367.638 51.7003 368.433 52.9207C368.91 53.6569 369.522 54.2235 370.113 54.7715C370.286 54.9313 370.449 55.0822 370.609 55.2378C372.945 57.4991 374.527 60.5629 375.064 63.8652C375.291 65.2678 375.342 66.7705 375.392 68.2236C375.413 68.8578 375.435 69.5135 375.472 70.1577C375.582 72.1357 375.842 74.4378 376.932 76.5097C378.253 79.0171 380.741 80.8385 383.424 81.2639C383.843 81.3303 384.274 81.364 384.703 81.364C385.224 81.364 385.751 81.3144 386.268 81.2167C388.029 80.891 389.692 80.0067 390.947 78.7273C391.215 78.4545 391.268 78.0221 391.075 77.6861C390.464 76.6212 389.957 75.7739 389.383 74.8294C389.236 74.5878 388.984 74.4433 388.715 74.4433L388.666 74.4448C388.379 74.4634 388.124 74.6447 387.999 74.9188C387.546 75.9125 386.469 76.2666 385.611 76.2666C385.404 76.2666 385.195 76.2473 384.992 76.2093C384.541 76.127 384.118 75.9536 383.767 75.7077C382.577 74.8699 381.993 73.4724 381.711 72.4392L381.705 72.4147C381.556 71.8647 381.452 71.2735 381.397 70.6573C381.355 70.205 381.335 69.7102 381.333 69.1418C381.331 68.4106 381.364 67.6551 381.396 66.9244C381.436 66.0158 381.476 65.0763 381.455 64.1379C381.326 58.492 378.831 52.9233 374.778 49.242C373.985 48.5237 372.906 47.6702 371.59 47.4361C371.459 47.4124 371.322 47.3969 371.173 47.3892C371.103 47.385 371.031 47.3829 370.961 47.3829Z" fill="black"/>
<path d="M390.396 78.1221C389.232 79.3084 387.719 80.0954 386.129 80.3894C385.276 80.5505 384.4 80.5687 383.542 80.4328C381.086 80.0435 378.835 78.3952 377.626 76.1013C376.662 74.2681 376.383 72.2165 376.265 70.1074C376.265 70.1074 378.039 78.5478 380.592 77.0452C382.048 76.1895 381.332 75.4921 380.941 72.6478C381.349 74.1603 382.109 75.5496 383.329 76.408C383.784 76.7274 384.31 76.9374 384.854 77.0368C386.379 77.3211 388.051 76.7399 388.715 75.2835C389.24 76.149 389.762 77.0172 390.396 78.1221ZM405.254 83.5663C404.865 83.5663 404.506 83.446 404.215 83.2186C403.597 82.7372 403.417 81.9407 403.286 81.1664L400.824 66.7279C400.802 66.6 400.837 66.4688 400.919 66.3722L406.657 59.6373C406.733 59.5476 406.841 59.4984 406.952 59.4984L407.056 59.5131C407.201 59.5547 407.311 59.6789 407.341 59.8342C407.498 60.6473 407.666 61.5189 407.827 62.3834C408.872 68.0629 408.505 73.2396 408.08 79.2338C408.049 79.6827 408.017 80.1363 407.985 80.5951L407.967 80.6905C407.8 81.2519 407.578 81.8996 407.197 82.4468C407.07 82.6275 406.93 82.7913 406.778 82.9348C406.363 83.33 405.793 83.5663 405.254 83.5663Z" fill="#1C1B1B"/>
<path d="M406.952 59.9186C407.115 60.7623 407.278 61.6109 407.437 62.4644C408.549 68.5109 408.045 74.0026 407.589 80.5644C407.418 81.1367 407.211 81.7189 406.877 82.1975C406.77 82.3505 406.649 82.4935 406.513 82.6218C406.173 82.9456 405.704 83.1461 405.254 83.1461C404.966 83.1461 404.686 83.0644 404.452 82.8808C403.939 82.4812 403.789 81.7534 403.677 81.0923C402.856 76.2793 402.035 71.4663 401.214 66.6533L406.952 59.9186ZM406.952 59.0782C406.73 59.0782 406.514 59.1767 406.362 59.3561L400.624 66.0908C400.46 66.2839 400.389 66.5467 400.433 66.8024L401.606 73.6809L402.896 81.2414C403.003 81.8745 403.182 82.9357 403.981 83.5574C404.338 83.8376 404.779 83.9864 405.254 83.9864C405.898 83.9864 406.55 83.7167 407.045 83.2465C407.215 83.0853 407.373 82.9005 407.515 82.6982C407.933 82.0991 408.17 81.411 408.346 80.8166C408.365 80.7546 408.376 80.6907 408.381 80.6259C408.413 80.1674 408.445 79.7141 408.477 79.2654C408.903 73.241 409.272 68.0382 408.217 62.3039C408.065 61.4894 407.913 60.6941 407.73 59.75C407.67 59.4394 407.45 59.191 407.16 59.1077C407.092 59.0879 407.021 59.0782 406.952 59.0782Z" fill="black"/>
<path d="M388.423 79.7521C393.512 82.3103 399.429 82.9764 404.915 81.6073C404.154 79.4438 403.396 77.2802 402.636 75.1167C398.888 76.0813 395.012 76.481 391.161 76.3033C390.272 76.2614 389.316 76.2071 388.563 76.7104C387.809 77.2136 387.084 79.0786 388.423 79.7521Z" fill="#1C1B1B"/>
<path d="M403.457 85.7474C402.432 85.721 401.628 84.906 401.069 83.3251C400.994 83.1142 400.924 82.8914 400.855 82.6444L400.427 81.0971C400.213 81.4387 399.968 81.7626 399.696 82.0577C399.632 82.1292 399.557 82.2076 399.477 82.2861C399.282 82.4811 399.064 82.6687 398.834 82.8405C397.35 83.951 395.389 84.5227 392.841 84.5878C392.582 84.5949 392.312 84.5991 392.035 84.6006C391.955 84.6013 391.872 84.6016 391.79 84.6016C388.813 84.6016 385.234 84.1565 383.975 80.6842C382.568 76.7988 383.297 71.9217 385.877 67.9563C387.667 65.2086 390.24 62.8506 393.746 60.7469C394.777 60.1283 395.591 59.1578 396.036 58.0142C396.07 57.9261 396.106 57.8346 396.142 57.743C396.222 57.5377 396.304 57.3359 396.387 57.1327C396.545 56.7401 396.715 56.3297 396.892 55.9138C396.892 55.9138 397.093 55.4431 397.152 55.3043C397.299 54.9589 397.451 54.6102 397.604 54.2602C397.669 54.1107 397.81 54.0162 397.964 54.0162L397.99 54.0172C398.997 54.0872 400.015 54.1213 401.102 54.1213C402.422 54.1213 403.816 54.0703 405.362 53.9652L405.388 53.9644C405.507 53.9644 405.619 54.0206 405.695 54.1184C406.576 55.2555 407.291 56.5405 407.821 57.9379C407.984 58.3644 408.135 58.8205 408.268 59.292C408.321 59.4785 408.364 59.6433 408.4 59.7961C408.982 62.1452 409.028 64.6014 408.532 66.8946C408.13 68.7663 407.372 70.5604 406.278 72.2264C405.992 72.6644 405.681 73.0934 405.353 73.5035C405.649 76.1275 405.834 78.8034 405.904 81.4601C405.909 81.6918 405.915 81.9298 405.912 82.1702C405.903 82.9664 405.808 83.5559 405.604 84.081C405.42 84.5476 405.119 84.9686 404.756 85.269C404.37 85.5831 403.937 85.7479 403.502 85.7479L403.457 85.7474Z" fill="#2B2B2B"/>
<path d="M405.388 54.3847C406.251 55.4994 406.945 56.7571 407.452 58.0945C407.618 58.5258 407.762 58.967 407.888 59.4123C407.933 59.5719 407.977 59.7358 408.015 59.8983C408.572 62.1488 408.635 64.5365 408.145 66.801C407.746 68.658 406.981 70.4198 405.952 71.9868C405.638 72.4672 405.299 72.9293 404.938 73.3705C405.246 76.0594 405.436 78.7637 405.507 81.4721C405.512 81.7017 405.518 81.9342 405.515 82.1653C405.508 82.7675 405.452 83.3697 405.237 83.9215C405.082 84.3135 404.828 84.6763 404.511 84.9381C404.218 85.1771 403.87 85.3279 403.501 85.3279L403.467 85.3275C402.437 85.3008 401.821 84.2519 401.441 83.1778C401.363 82.9579 401.295 82.738 401.236 82.5251C401.004 81.6863 400.771 80.8474 400.539 80.0086C400.271 80.6528 399.883 81.2522 399.411 81.7647C399.346 81.8375 399.278 81.9089 399.207 81.9776C399.018 82.1666 398.816 82.3403 398.605 82.4971C396.953 83.7337 394.855 84.116 392.831 84.1678C392.574 84.1749 392.307 84.179 392.033 84.1805C391.952 84.1811 391.871 84.1814 391.789 84.1814C388.982 84.1814 385.52 83.7725 384.345 80.5337C382.881 76.4878 383.882 71.7641 386.204 68.1944C388.157 65.196 390.934 62.9175 393.942 61.1123C395.049 60.4485 395.919 59.4192 396.403 58.1742C396.438 58.0846 396.473 57.9935 396.509 57.9026C396.589 57.7009 396.669 57.5006 396.751 57.299C396.914 56.8956 397.082 56.4909 397.255 56.0862C397.341 55.8846 397.427 55.6814 397.514 55.4784C397.661 55.1325 397.812 54.7851 397.964 54.4364C399.005 54.5089 400.05 54.5414 401.102 54.5414C402.511 54.5414 403.934 54.4833 405.388 54.3847ZM405.388 53.5443L405.337 53.546C403.799 53.6504 402.413 53.7011 401.102 53.7011C400.023 53.7011 399.014 53.6674 398.016 53.598L397.964 53.5961C397.656 53.5961 397.374 53.7852 397.243 54.0841C397.106 54.3986 396.944 54.7693 396.789 55.1339C396.731 55.2706 396.671 55.4109 396.611 55.5508L396.53 55.7405C396.352 56.1613 396.18 56.5742 396.021 56.969C395.938 57.1715 395.856 57.3747 395.776 57.5795C395.739 57.6732 395.702 57.7664 395.667 57.858C395.257 58.9114 394.505 59.8089 393.55 60.3815C389.991 62.517 387.374 64.9167 385.55 67.7177C384.3 69.6387 383.444 71.8244 383.073 74.0388C382.673 76.4215 382.857 78.7713 383.603 80.8342C384.214 82.5188 385.422 83.7065 387.192 84.3648C388.775 84.9536 390.574 85.0217 391.789 85.0217C391.873 85.0217 391.956 85.0213 392.038 85.0207C392.318 85.0193 392.592 85.015 392.852 85.0078C395.48 84.9406 397.513 84.3437 399.064 83.183C399.307 83.002 399.538 82.8027 399.75 82.5916C399.834 82.5094 399.913 82.4267 399.985 82.3458C400.082 82.2397 400.177 82.1301 400.268 82.0175C400.336 82.2653 400.405 82.513 400.473 82.7608C400.546 83.0209 400.619 83.253 400.697 83.4734C401.319 85.2295 402.244 86.1364 403.447 86.1674L403.501 86.1681C404.025 86.1681 404.542 85.9732 404.995 85.6043L405.001 85.5998C405.417 85.2559 405.761 84.7748 405.97 84.2454C406.259 83.5019 406.303 82.7486 406.309 82.175C406.312 81.9266 406.307 81.6851 406.301 81.4515C406.232 78.8402 406.053 76.2132 405.767 73.6343C406.063 73.2568 406.344 72.8645 406.605 72.4644C407.727 70.7558 408.506 68.9123 408.919 66.987C409.429 64.631 409.382 62.1074 408.784 59.6901C408.747 59.5326 408.703 59.3631 408.649 59.1721C408.512 58.6874 408.357 58.2186 408.188 57.7785C407.644 56.3445 406.909 55.0224 406.002 53.8523C405.851 53.6567 405.625 53.5443 405.388 53.5443Z" fill="black"/>
<path d="M407.452 58.0944C406.316 59.233 403.439 59.5467 401.719 59.289C399.781 58.9991 397.792 59.6069 396.402 61.0648C395.864 61.6278 395.173 62.0535 394.284 62.2215C390.241 62.9834 390.441 67.3443 391.883 67.0474C393.324 66.7519 397.526 65.9046 400.688 70.5612C402.709 73.5399 396.676 79.9497 392.033 84.1805C389.186 84.2028 385.554 83.8668 384.345 80.5337C382.881 76.4878 383.882 71.7641 386.204 68.1944C388.157 65.196 390.934 62.9175 393.942 61.1123C395.049 60.4485 395.919 59.4191 396.403 58.1741C396.438 58.0845 396.473 57.9934 396.509 57.9024C396.589 57.7008 396.669 57.5005 396.751 57.2989C396.914 56.8955 397.083 56.4908 397.255 56.0861C397.341 55.8844 397.427 55.6813 397.514 55.4783C397.661 55.1324 397.812 54.785 397.964 54.4363C400.399 54.6057 402.849 54.5567 405.388 54.3845C406.251 55.4993 406.945 56.757 407.452 58.0944Z" fill="#1C1B1B"/>
<path d="M400.907 57.4972C394.711 57.4972 390.246 54.8023 388.613 53.6437C388.046 53.2411 387.74 52.5421 387.813 51.8195C388.07 49.292 388.609 46.8443 389.373 44.7305C388.322 40.0659 388.597 35.0437 390.131 30.93C390.162 30.8443 390.195 30.7578 390.23 30.6713C390.294 30.5139 390.44 30.4174 390.595 30.4174L390.712 30.436C393.513 31.3465 396.33 33.6457 398.251 35.4747C399.252 35.2124 400.324 35.0796 401.441 35.0796C402.178 35.0796 402.899 35.1445 403.588 35.2728C405.382 33.4614 408.045 31.1114 410.81 29.8764C411.179 29.7106 411.557 29.5635 411.934 29.4393L412.052 29.4203C412.209 29.4203 412.357 29.5197 412.419 29.6811C414.116 34.0558 414.372 39.3872 413.127 44.3328C414.306 47.2101 414.837 50.0155 415.049 51.4443C415.166 52.2355 414.818 53.0103 414.16 53.4183C413.56 53.791 412.945 54.1454 412.332 54.4714C408.562 56.4791 404.718 57.4972 400.907 57.4972Z" fill="#2B2B2B"/>
<path d="M412.052 29.8405C413.747 34.2113 413.96 39.5106 412.707 44.3659C413.904 47.2379 414.44 50.0553 414.656 51.5096C414.748 52.1277 414.469 52.7393 413.959 53.0561C413.351 53.4339 412.749 53.7793 412.154 54.0962C408.011 56.3019 404.207 57.077 400.907 57.077C394.833 57.077 390.467 54.4533 388.835 53.2947C388.39 52.9787 388.151 52.4282 388.208 51.8644C388.438 49.604 388.924 47.1081 389.789 44.7594C388.727 40.1617 388.957 35.2223 390.501 31.084C390.531 31 390.562 30.9188 390.595 30.8375C393.215 31.689 395.95 33.8261 398.143 35.9379C399.147 35.6536 400.244 35.4996 401.441 35.4996C402.246 35.4996 403.003 35.5781 403.716 35.7251C405.735 33.665 408.362 31.4257 410.965 30.2634C411.329 30.0995 411.69 29.9595 412.052 29.8405ZM412.052 29C411.974 29 411.894 29.0123 411.816 29.0382C411.426 29.1665 411.035 29.3186 410.654 29.4902C407.909 30.7159 405.273 33.009 403.458 34.8238C402.807 34.7146 402.131 34.6594 401.441 34.6594C400.367 34.6594 399.334 34.7789 398.361 35.015C396.415 33.1828 393.623 30.9427 390.828 30.0344C390.751 30.0092 390.672 29.9972 390.595 29.9972C390.285 29.9972 389.994 30.19 389.865 30.505C389.832 30.587 389.799 30.672 389.76 30.78C388.965 32.9124 388.499 35.2422 388.374 37.7045C388.255 40.051 388.452 42.4035 388.959 44.7018C388.206 46.8207 387.674 49.2596 387.418 51.7745C387.329 52.6528 387.702 53.5027 388.392 53.9925C390.055 55.1726 394.602 57.9173 400.907 57.9173C404.78 57.9173 408.685 56.8842 412.511 54.8468C413.131 54.5166 413.754 54.158 414.361 53.7808C415.16 53.2847 415.584 52.3421 415.441 51.3793C415.229 49.9526 414.704 47.1725 413.546 44.2998C414.772 39.3072 414.499 33.9378 412.787 29.5217C412.662 29.1991 412.366 29 412.052 29Z" fill="black"/>
<path d="M403.83 52.6788C403.472 52.6788 403.127 52.6066 402.858 52.4751C402.292 52.1977 401.992 51.8828 401.992 51.5646C401.992 51.0294 402.763 50.6258 403.784 50.6258C404.653 50.6258 405.577 50.9548 405.577 51.5646C405.577 51.7736 405.425 51.9959 405.086 52.2856C404.793 52.5356 404.335 52.6788 403.83 52.6788Z" fill="#D68580"/>
<path d="M403.784 50.8359C404.663 50.8359 405.378 51.1625 405.378 51.5645C405.378 51.7186 405.191 51.9256 404.961 52.1221C404.684 52.3586 404.254 52.4688 403.83 52.4688C403.507 52.4688 403.188 52.405 402.942 52.2845C402.437 52.0371 402.191 51.7782 402.191 51.5645C402.191 51.1625 402.903 50.8359 403.784 50.8359ZM403.784 50.4157C402.795 50.4157 401.793 50.8103 401.793 51.5646C401.793 51.9765 402.124 52.3471 402.775 52.6658C403.069 52.8097 403.444 52.889 403.83 52.889C404.38 52.889 404.883 52.7287 405.21 52.4492C405.601 52.1158 405.775 51.843 405.775 51.5646C405.775 50.8103 404.774 50.4157 403.784 50.4157ZM409.468 51.7205C408.986 51.7205 408.45 51.6436 407.874 51.4923C407.637 51.4302 407.391 51.354 407.121 51.2595C406.384 51.0012 405.873 50.7297 405.852 50.7182C405.785 50.6827 405.743 50.6107 405.743 50.5318C405.743 50.5097 405.741 49.979 405.81 49.2194C405.856 48.7122 405.923 48.2249 406.009 47.7711C406.317 46.1331 406.851 45.0108 407.594 44.4357C408.008 44.1166 408.508 43.9548 409.08 43.9548C409.585 43.9548 410.148 44.0809 410.753 44.3299C411.441 44.6129 412.017 44.9853 412.299 45.182C412.455 45.2889 412.545 45.3602 412.549 45.3632C412.591 45.3968 412.619 45.4469 412.626 45.5022C412.626 45.5022 412.634 45.5639 412.646 45.6747C412.678 45.9753 412.746 46.7687 412.69 47.6654C412.588 49.3658 412.126 50.5441 411.317 51.1669C410.84 51.5342 410.218 51.7205 409.468 51.7205Z" fill="black"/>
<path d="M409.08 44.1649C409.624 44.1649 410.181 44.32 410.681 44.5255C411.334 44.7944 411.89 45.1487 412.189 45.3573C412.343 45.4624 412.429 45.531 412.429 45.531C412.429 45.531 412.437 45.5913 412.449 45.6991C412.483 46.024 412.546 46.7858 412.491 47.6513C412.419 48.8669 412.121 50.2883 411.2 50.997C410.712 51.3732 410.1 51.5103 409.468 51.5103C408.947 51.5103 408.413 51.4173 407.922 51.2883C407.66 51.2196 407.411 51.1398 407.183 51.0599C406.453 50.8037 405.941 50.5306 405.941 50.5306C405.941 50.5306 405.939 49.9971 406.008 49.2394C406.046 48.8164 406.107 48.3221 406.204 47.8123C406.437 46.5757 406.879 45.2495 407.712 44.6053C408.124 44.2872 408.597 44.1649 409.08 44.1649ZM409.08 43.7448C408.465 43.7448 407.926 43.9201 407.478 44.266C406.692 44.8733 406.133 46.0388 405.814 47.7303C405.727 48.1898 405.659 48.6842 405.612 49.1993C405.542 49.9691 405.544 50.5102 405.544 50.5328C405.545 50.6905 405.629 50.8345 405.762 50.9056C405.784 50.9174 406.308 51.1958 407.058 51.4588C407.333 51.555 407.584 51.6326 407.827 51.6962C408.418 51.8517 408.97 51.9306 409.468 51.9306C410.261 51.9306 410.923 51.7307 411.434 51.3367C412.293 50.6755 412.782 49.4445 412.888 47.678C412.945 46.7653 412.876 45.9574 412.844 45.6524C412.831 45.5367 412.823 45.4731 412.823 45.4731C412.808 45.3627 412.752 45.2627 412.668 45.1956C412.664 45.1924 412.569 45.1166 412.405 45.0047C412.119 44.8053 411.53 44.4242 410.826 44.1341C410.197 43.8758 409.61 43.7448 409.08 43.7448Z" fill="black"/>
<path d="M411.808 42.4445C411.661 42.4445 411.528 42.3644 411.454 42.2301C410.593 40.6864 409.592 39.3954 408.478 38.3929C408.335 38.2636 408.292 38.0485 408.373 37.8697C409.481 35.4411 410.414 33.7194 411.237 32.2005C411.403 31.893 411.565 31.5933 411.724 31.2971C411.76 31.2309 411.826 31.1906 411.897 31.1906L411.914 31.1914C411.992 31.1987 412.058 31.2532 412.084 31.3309C413.259 34.8541 413.3 38.5926 412.203 42.1417C412.147 42.323 411.988 42.4445 411.808 42.4445Z" fill="#D68580"/>
<path d="M411.897 31.4006C413.034 34.8125 413.103 38.5526 412.014 42.0763C411.982 42.1794 411.895 42.2344 411.808 42.2344C411.737 42.2344 411.667 42.1986 411.625 42.1233C410.828 40.6937 409.837 39.3399 408.607 38.2327C408.532 38.1657 408.509 38.0539 408.552 37.9608C409.881 35.049 410.953 33.1627 411.897 31.4006ZM411.897 30.9804C411.755 30.9804 411.622 31.061 411.551 31.1934C411.393 31.4895 411.23 31.7892 411.064 32.0967C410.24 33.6185 409.305 35.3433 408.194 37.7782C408.073 38.0432 408.137 38.3616 408.349 38.5527C409.446 39.5401 410.433 40.8132 411.283 42.3367C411.393 42.5357 411.59 42.6545 411.808 42.6545C412.074 42.6545 412.309 42.4746 412.391 42.2068C413.502 38.6132 413.46 34.8281 412.271 31.2608C412.22 31.1056 412.087 30.9966 411.932 30.9821L411.897 30.9804Z" fill="black"/>
<path d="M390.626 42.7909C390.456 42.7909 390.311 42.6746 390.266 42.5013C389.363 39.069 389.47 35.2256 390.561 31.9567C390.58 31.8999 390.621 31.8545 390.674 31.8319L390.748 31.8165L390.837 31.8386C392.696 32.8194 393.763 34.4774 395.083 37.1935C395.169 37.3709 395.116 37.5891 394.96 37.7014C393.368 38.8483 392.019 40.4912 390.952 42.5844C390.886 42.7137 390.764 42.7909 390.626 42.7909Z" fill="#D68580"/>
<path d="M390.748 32.0266C392.519 32.961 393.573 34.5443 394.906 37.2896C394.947 37.3728 394.922 37.4752 394.849 37.5278C393.106 38.7828 391.777 40.5244 390.777 42.4847C390.744 42.5499 390.685 42.5808 390.626 42.5808C390.553 42.5808 390.48 42.5333 390.457 42.4449C389.553 39.0109 389.674 35.2452 390.748 32.0266ZM390.748 31.6064C390.698 31.6064 390.647 31.6166 390.599 31.6371C390.494 31.6822 390.412 31.7731 390.374 31.8867C389.27 35.1952 389.161 39.0846 390.074 42.5575C390.144 42.8227 390.366 43.0009 390.626 43.0009C390.835 43.0009 391.027 42.8795 391.127 42.6841C392.179 40.6209 393.506 39.0029 395.072 37.875C395.311 37.7031 395.391 37.3689 395.259 37.0976C393.921 34.3417 392.833 32.6573 390.926 31.6506C390.87 31.6212 390.809 31.6064 390.748 31.6064Z" fill="black"/>
<path d="M409.468 51.7205C408.986 51.7205 408.45 51.6436 407.874 51.4923L407.803 51.4563C407.22 50.9925 406.745 50.3665 406.429 49.6457C406.172 49.0616 406.03 48.4476 406.005 47.821L406.009 47.7714C406.317 46.1332 406.851 45.0109 407.594 44.4358C408.008 44.1167 408.508 43.9548 409.08 43.9548C409.585 43.9548 410.148 44.081 410.753 44.3299C411.441 44.613 412.017 44.9853 412.299 45.1821L412.337 45.2172C412.428 45.3245 412.517 45.4417 412.609 45.5753L412.646 45.6757C412.678 45.9754 412.746 46.7688 412.689 47.6654C412.588 49.3658 412.126 50.5441 411.317 51.1669C410.84 51.5342 410.218 51.7205 409.468 51.7205Z" fill="#F9D669"/>
<path d="M409.08 44.1649C409.624 44.1649 410.181 44.32 410.681 44.5255C411.334 44.7944 411.89 45.1487 412.189 45.3573C412.281 45.4652 412.367 45.58 412.449 45.699C412.483 46.0239 412.546 46.7857 412.491 47.6512C412.419 48.8668 412.121 50.2883 411.2 50.9969C410.712 51.3732 410.1 51.5103 409.468 51.5103C408.947 51.5103 408.413 51.4172 407.922 51.2882C407.383 50.8597 406.923 50.2729 406.609 49.5572C406.357 48.9845 406.226 48.3907 406.204 47.8123C406.437 46.5757 406.879 45.2495 407.712 44.6053C408.124 44.2872 408.597 44.1649 409.08 44.1649ZM409.08 43.7448C408.465 43.7448 407.926 43.9201 407.477 44.266C406.692 44.8733 406.133 46.0388 405.814 47.7303L405.807 47.8297C405.832 48.4841 405.981 49.1249 406.248 49.7343C406.578 50.4862 407.074 51.1398 407.683 51.6241C407.726 51.658 407.775 51.6824 407.826 51.696C408.418 51.8516 408.97 51.9304 409.468 51.9304C410.261 51.9304 410.923 51.7306 411.434 51.3366C412.293 50.6754 412.782 49.4443 412.888 47.6778C412.945 46.7652 412.876 45.9573 412.844 45.6523C412.836 45.5797 412.811 45.5105 412.77 45.4515C412.674 45.3119 412.58 45.1894 412.485 45.077L412.408 45.0066C412.119 44.8052 411.53 44.424 410.825 44.1341C410.197 43.8757 409.609 43.7448 409.08 43.7448Z" fill="black"/>
<path d="M407.951 48.2419C407.951 46.8456 408.476 45.7132 408.476 45.7132C408.476 45.7132 409.001 46.8456 409.001 48.2419C409.001 49.6381 408.476 50.7705 408.476 50.7705C408.476 50.7705 407.951 49.6381 407.951 48.2419Z" fill="black"/>
<path d="M409.43 47.8375C409.266 47.8375 409.115 47.8642 408.991 47.9094C408.997 48.0182 409.001 48.1292 409.001 48.242C409.001 48.3421 408.998 48.4409 408.993 48.538C409.117 48.5828 409.267 48.6092 409.43 48.6092C409.848 48.6092 410.186 48.4364 410.186 48.2233C410.186 48.0102 409.848 47.8375 409.43 47.8375Z" fill="#FAE5A4"/>
<path d="M408.991 47.9094C408.8 47.9794 408.675 48.0939 408.675 48.2233C408.675 48.3531 408.801 48.468 408.993 48.538C408.998 48.4409 409.001 48.3421 409.001 48.242C409.001 48.1292 408.997 48.0183 408.991 47.9094Z" fill="#656565"/>
<path d="M404.044 51.0621C403.764 51.0621 403.536 51.1415 403.536 51.2393C403.536 51.3373 403.764 51.4166 404.044 51.4166C404.325 51.4166 404.553 51.3372 404.553 51.2393C404.553 51.1414 404.325 51.0621 404.044 51.0621Z" fill="#E5B5B2"/>
<path d="M405.515 82.1652C405.508 82.7674 405.452 83.3696 405.237 83.9214C405.082 84.3135 404.828 84.6762 404.511 84.9381C404.208 85.1846 403.848 85.3372 403.467 85.3274C402.437 85.3008 401.821 84.2519 401.441 83.1777C402.919 83.9634 404.717 84.3275 405.515 82.1652Z" fill="#1C1B1B"/>
<path d="M393.854 86.3482C392.649 86.3482 391.565 86.2323 390.541 85.9939L390.454 85.9733C387.35 85.2182 385.417 82.5422 385.277 78.8138C385.243 77.9063 385.333 76.988 385.545 76.0843L385.555 76.0374C385.728 75.3106 385.979 74.5918 386.301 73.9005L386.881 72.6566C387.828 70.6251 389.413 69.0789 391.342 68.3031C391.591 68.2041 391.842 68.1176 392.088 68.0457C392.781 67.8445 393.484 67.7426 394.179 67.7426C394.427 67.7426 394.677 67.7559 394.921 67.782C397.947 68.1015 400.735 70.4553 401.701 73.5058C402.56 76.2139 401.961 79.3997 400.253 81.6093C400.332 81.612 400.41 81.6167 400.485 81.6231C401.649 81.7197 402.377 82.2558 402.536 83.1325C402.639 83.6962 402.445 84.2962 402.005 84.7779C401.875 84.9188 401.73 85.0416 401.573 85.1441C400.987 85.5254 400.313 85.6328 399.72 85.7275C397.909 86.0184 395.857 86.3482 393.854 86.3482Z" fill="#2B2B2B"/>
<path d="M394.179 68.1627C394.413 68.1627 394.647 68.175 394.881 68.2C397.771 68.5053 400.402 70.725 401.325 73.6393C402.249 76.5523 401.416 80.0015 399.284 82.0882C399.535 82.0498 399.807 82.0265 400.079 82.0265C400.204 82.0265 400.33 82.0314 400.453 82.0419C401.264 82.1092 402.002 82.42 402.145 83.2113C402.23 83.6749 402.034 84.1412 401.719 84.4857C401.612 84.602 401.493 84.7028 401.364 84.7869C400.856 85.1174 400.249 85.2182 399.66 85.3121C397.74 85.6207 395.788 85.9281 393.854 85.9281C392.769 85.9281 391.691 85.8314 390.627 85.5837L390.538 85.5628C387.36 84.7897 385.795 82.0434 385.673 78.7972C385.64 77.9107 385.732 77.0271 385.934 76.17L385.937 76.156C386.105 75.4432 386.349 74.7486 386.657 74.0862L387.237 72.8425C388.119 70.9519 389.62 69.4451 391.483 68.6958C391.716 68.6034 391.955 68.5208 392.194 68.4507C392.841 68.2629 393.509 68.1627 394.179 68.1627ZM394.178 67.3225C393.448 67.3225 392.71 67.4295 391.984 67.6405C391.725 67.7161 391.463 67.8063 391.204 67.909C389.177 68.7242 387.517 70.3438 386.525 72.4708L385.945 73.7144C385.609 74.4362 385.347 75.1869 385.168 75.9462L385.158 75.9903C384.938 76.9302 384.844 77.8855 384.88 78.8303C385.027 82.7598 387.076 85.5827 390.36 86.3816L390.369 86.3838L390.45 86.4031C391.508 86.6493 392.62 86.7684 393.854 86.7684C395.887 86.7684 397.955 86.4361 399.78 86.1428C400.379 86.0474 401.125 85.9284 401.78 85.5028C401.966 85.3811 402.136 85.2369 402.288 85.0726C402.822 84.4886 403.054 83.753 402.925 83.0519C402.757 82.1214 402.062 81.4888 400.992 81.2714C401.549 80.411 401.966 79.4349 402.22 78.3816C402.629 76.6873 402.58 74.9551 402.078 73.372C401.576 71.7889 400.628 70.3752 399.336 69.2845C398.044 68.194 396.53 67.5298 394.959 67.3639C394.703 67.3364 394.44 67.3225 394.178 67.3225Z" fill="black"/>
<path d="M401.719 84.4857C401.612 84.602 401.493 84.7029 401.364 84.7869C400.856 85.1174 400.25 85.2182 399.66 85.3121C396.663 85.7938 393.587 86.2728 390.627 85.5837L390.538 85.5628C387.36 84.7897 385.795 82.0434 385.673 78.7972C385.64 77.9108 385.732 77.0271 385.934 76.17C385.888 76.5131 385.969 83.2451 392.453 84.5978C399.884 86.148 401.681 83.5391 400.453 82.042C401.264 82.1093 402.003 82.4201 402.145 83.2114C402.23 83.675 402.034 84.1412 401.719 84.4857Z" fill="#1C1B1B"/>
<path d="M396.861 53.025C396.54 53.025 396.228 52.9851 395.934 52.9063C394.266 52.4601 393.108 50.781 392.431 49.451C391.952 48.5131 391.715 47.7613 391.705 47.7299C391.681 47.6525 391.701 47.5674 391.757 47.5113C391.789 47.4793 392.553 46.7192 393.67 46.0328C394.82 45.3235 395.899 44.9638 396.876 44.9638C397.196 44.9638 397.508 45.0036 397.802 45.0823C398.926 45.3835 399.949 46.2677 400.841 47.71C401.628 48.9801 402.015 50.206 402.031 50.2575C402.055 50.3349 402.035 50.4198 401.979 50.4758C401.953 50.5017 401.335 51.1167 400.4 51.7416L400.39 51.7489C399.118 52.5957 397.931 53.025 396.861 53.025Z" fill="black"/>
<path d="M396.876 45.1738C397.17 45.1738 397.464 45.2085 397.754 45.286C399.029 45.6277 400.001 46.7355 400.675 47.825C401.457 49.0868 401.842 50.3233 401.842 50.3233C401.842 50.3233 401.22 50.9465 400.285 51.5698L400.284 51.5711C399.35 52.1931 398.106 52.815 396.861 52.815C396.567 52.815 396.273 52.7803 395.982 52.7027C394.386 52.2756 393.264 50.644 392.606 49.3515C392.129 48.4188 391.894 47.6639 391.894 47.6639C391.894 47.6639 392.66 46.8965 393.77 46.2144C394.658 45.6666 395.767 45.1738 396.876 45.1738ZM396.876 44.7537C395.863 44.7537 394.751 45.1231 393.57 45.8515C392.434 46.5498 391.653 47.3261 391.621 47.3588C391.509 47.4708 391.468 47.641 391.517 47.7957C391.527 47.8279 391.769 48.5968 392.257 49.5513C392.952 50.9178 394.147 52.6452 395.885 53.1101C396.195 53.1931 396.524 53.2352 396.861 53.2352C397.969 53.2352 399.192 52.7949 400.496 51.9267L400.511 51.9159C401.46 51.2812 402.089 50.6549 402.116 50.6285C402.227 50.5166 402.268 50.3465 402.22 50.1919C402.203 50.1393 401.809 48.8879 401.007 47.5946C400.087 46.1072 399.025 45.1933 397.851 44.8788C397.541 44.7958 397.213 44.7537 396.876 44.7537Z" fill="black"/>
<path d="M396.861 53.025C396.54 53.025 396.228 52.9851 395.934 52.9063C394.266 52.4601 393.108 50.781 392.431 49.451L392.408 49.3611L392.406 49.2632C392.406 48.0633 392.84 46.9286 393.627 46.0682L393.67 46.0329C394.82 45.3235 395.899 44.9637 396.876 44.9637C397.196 44.9637 397.508 45.0035 397.802 45.0823C398.926 45.3835 399.948 46.2677 400.841 47.7099L400.862 47.7558C401.021 48.2404 401.102 48.7475 401.102 49.2632C401.102 50.1188 400.878 50.9545 400.454 51.6801L400.426 51.7182L400.39 51.7489C399.118 52.5957 397.931 53.025 396.861 53.025Z" fill="#F9D669"/>
<path d="M396.876 45.1738C397.17 45.1738 397.464 45.2085 397.754 45.286C399.029 45.6277 400.001 46.7355 400.675 47.825C400.823 48.2759 400.904 48.7591 400.904 49.2632C400.904 50.1091 400.677 50.899 400.285 51.5698L400.284 51.5712C399.35 52.1931 398.106 52.8151 396.861 52.8151C396.567 52.8151 396.273 52.7804 395.982 52.7028C394.386 52.2756 393.264 50.6441 392.606 49.3515L392.605 49.2633C392.605 48.0799 393.048 47.003 393.77 46.2145C394.658 45.6666 395.767 45.1738 396.876 45.1738ZM396.876 44.7538C395.863 44.7538 394.751 45.1231 393.57 45.8516L393.485 45.9223C392.661 46.8221 392.208 48.0086 392.208 49.2633L392.209 49.3713C392.212 49.434 392.228 49.4954 392.256 49.5507C392.952 50.9178 394.147 52.6452 395.885 53.1101C396.195 53.1931 396.524 53.2352 396.861 53.2352C397.969 53.2352 399.192 52.7949 400.496 51.9267L400.565 51.8685L400.623 51.7907C401.067 51.0319 401.301 50.1579 401.301 49.2633C401.301 48.724 401.216 48.1937 401.05 47.687L401.007 47.595C400.087 46.1072 399.025 45.1933 397.851 44.8787C397.541 44.7958 397.213 44.7538 396.876 44.7538Z" fill="black"/>
<path d="M396.068 49.2632C396.068 47.8669 396.593 46.7345 396.593 46.7345C396.593 46.7345 397.118 47.8669 397.118 49.2632C397.118 50.6594 396.593 51.7918 396.593 51.7918C396.593 51.7918 396.068 50.6594 396.068 49.2632Z" fill="black"/>
<path d="M397.509 48.8774C397.362 48.8774 397.225 48.899 397.108 48.9362C397.114 49.0433 397.118 49.1524 397.118 49.2632C397.118 49.3739 397.114 49.4831 397.108 49.5901C397.225 49.6274 397.362 49.6489 397.509 49.6489C397.927 49.6489 398.265 49.4763 398.265 49.2632C398.265 49.0501 397.927 48.8774 397.509 48.8774Z" fill="#FAE5A4"/>
<path d="M397.108 48.9362C396.896 49.0045 396.754 49.1254 396.754 49.2632C396.754 49.401 396.896 49.5219 397.108 49.5901C397.114 49.4831 397.118 49.3739 397.118 49.2632C397.118 49.1524 397.114 49.0433 397.108 48.9362Z" fill="#656565"/>
</g>
<defs>
<filter id="filter0_i_1_40" x="1.78125" y="29" width="440.5" height="91" filterUnits="userSpaceOnUse" color-interpolation-filters="sRGB">
<feFlood flood-opacity="0" result="BackgroundImageFix"/>
<feBlend mode="normal" in="SourceGraphic" in2="BackgroundImageFix" result="shape"/>
<feColorMatrix in="SourceAlpha" type="matrix" values="0 0 0 0 0 0 0 0 0 0 0 0 0 0 0 0 0 0 127 0" result="hardAlpha"/>
<feOffset dy="4"/>
<feGaussianBlur stdDeviation="2"/>
<feComposite in2="hardAlpha" operator="arithmetic" k2="-1" k3="1"/>
<feColorMatrix type="matrix" values="0 0 0 0 0 0 0 0 0 0 0 0 0 0 0 0 0 0 0.25 0"/>
<feBlend mode="normal" in2="shape" result="effect1_innerShadow_1_40"/>
</filter>
</defs>
</svg>
